<?xml version="1.0" encoding="iso-8859-1"?>
<!-- Generator: Adobe Illustrator 19.0.0, SVG Export Plug-In . SVG Version: 6.00 Build 0)  -->
<svg version="1.1" id="Capa_1" xmlns="http://www.w3.org/2000/svg" xmlns:xlink="http://www.w3.org/1999/xlink" x="0px" y="0px"
	 viewBox="0 0 512 512" style="enable-background:new 0 0 512 512;" xml:space="preserve">
<linearGradient id="SVGID_1_" gradientUnits="userSpaceOnUse" x1="20" y1="258" x2="492" y2="258" gradientTransform="matrix(1 0 0 -1 0 514)">
	<stop  offset="0" style="stop-color:#00F2FE"/>
	<stop  offset="0.021" style="stop-color:#03EFFE"/>
	<stop  offset="0.293" style="stop-color:#24D2FE"/>
	<stop  offset="0.554" style="stop-color:#3CBDFE"/>
	<stop  offset="0.796" style="stop-color:#4AB0FE"/>
	<stop  offset="1" style="stop-color:#4FACFE"/>
</linearGradient>
<path style="fill:url(#SVGID_1_);" d="M443.619,364.936c-10.856,2.035-18.009,12.485-15.975,23.341
	c1.51,8.055-2.031,13.795-4.275,16.5c-2.239,2.697-7.215,7.223-15.38,7.223H104.397c-8.165,0-13.141-4.525-15.38-7.223
	c-2.244-2.705-5.785-8.445-4.275-16.5c5.673-30.272,17.056-50.183,28.064-69.439C126.176,295.455,140,271.274,140,234v-30
	c0-63.067,51.263-115.072,114.302-115.987h3.781C320.908,88.925,372,140.93,372,204v30c0,31.723,10.377,53.552,20.104,71.523
	c3.62,6.688,10.5,10.484,17.606,10.484c3.215,0,6.477-0.777,9.502-2.415c9.715-5.257,13.327-17.395,8.069-27.108
	C417.604,268.602,412,254.281,412,234v-30c0-41.161-15.943-80.037-44.894-109.466C342.296,69.312,310.439,53.574,276,49.23V20
	c0-11.046-8.954-20-20-20s-20,8.954-20,20v29.289C159.542,59.209,100,125.181,100,204v30c0,26.647-9.673,43.566-21.919,64.986
	c-12.064,21.104-25.739,45.023-32.655,81.924c-3.301,17.616,1.369,35.626,12.813,49.414C69.673,444.1,86.497,452,104.397,452h91.989
	c0,33.084,26.916,60,60,60s60-26.916,60-60h91.603c17.9,0,34.725-7.9,46.158-21.676c11.444-13.788,16.114-31.798,12.813-49.414
	C464.927,370.053,454.477,362.901,443.619,364.936z M256.387,472c-11.028,0-20-8.972-20-20h40
	C276.387,463.028,267.415,472,256.387,472z M40,224.006c-11.046,0-20-8.954-20-20C20,145.85,41.352,89.97,80.122,46.66
	c7.367-8.229,20.011-8.929,28.241-1.562c8.229,7.367,8.929,20.011,1.562,28.241C77.73,109.304,60,155.708,60,204.006
	C60,215.052,51.046,224.006,40,224.006z M492,204.006c0,11.046-8.954,20-20,20s-20-8.954-20-20
	c0-48.298-17.73-94.703-49.925-130.667c-7.367-8.23-6.668-20.874,1.562-28.241s20.874-6.668,28.241,1.562
	C470.648,89.97,492,145.85,492,204.006z"/>
<g>
</g>
<g>
</g>
<g>
</g>
<g>
</g>
<g>
</g>
<g>
</g>
<g>
</g>
<g>
</g>
<g>
</g>
<g>
</g>
<g>
</g>
<g>
</g>
<g>
</g>
<g>
</g>
<g>
</g>
</svg>
